<svg width="85" height="85" viewBox="0 0 85 85" fill="none" xmlns="http://www.w3.org/2000/svg">
<path d="M36.4442 13.6753L6.4463 63.7545C5.82782 64.8256 5.50056 66.0399 5.4971 67.2768C5.49363 68.5136 5.81408 69.7298 6.42656 70.8043C7.03905 71.8788 7.92221 72.7742 8.98819 73.4015C10.0542 74.0287 11.2658 74.3659 12.5026 74.3795H72.4984C73.7351 74.3659 74.9468 74.0287 76.0128 73.4015C77.0787 72.7742 77.9619 71.8788 78.5744 70.8043C79.1869 69.7298 79.5073 68.5136 79.5038 67.2768C79.5004 66.0399 79.1731 64.8256 78.5546 63.7545L48.5567 13.6753C47.9253 12.6345 47.0364 11.7739 45.9755 11.1766C44.9147 10.5794 43.7179 10.2656 42.5005 10.2656C41.2831 10.2656 40.0862 10.5794 39.0254 11.1766C37.9646 11.7739 37.0756 12.6345 36.4442 13.6753Z" stroke="#F3B04E" stroke-width="7.08333" stroke-linecap="round" stroke-linejoin="round"/>
<path d="M42.5 31.875V46.0417" stroke="#F3B04E" stroke-width="7.08333" stroke-linecap="round" stroke-linejoin="round"/>
<path d="M42.5 60.209H42.5349" stroke="#F3B04E" stroke-width="7.08333" stroke-linecap="round" stroke-linejoin="round"/>
</svg>
