<svg width="470" height="174" viewBox="0 0 470 174" fill="none" xmlns="http://www.w3.org/2000/svg">
<path d="M70.5609 103.009H92.2218C91.7871 110.109 89.8311 116.412 86.3538 121.917C82.9247 127.423 78.1192 131.721 71.9373 134.812C65.8037 137.903 58.4144 139.449 49.7693 139.449C43.0078 139.449 36.9467 138.29 31.5858 135.972C26.2249 133.605 21.6367 130.224 17.8213 125.829C14.0542 121.434 11.1806 116.122 9.20044 109.892C7.2203 103.661 6.23022 96.6825 6.23022 88.9551V81.6382C6.23022 73.9108 7.24444 66.932 9.27289 60.7018C11.3496 54.4233 14.2957 49.0865 18.1111 44.6916C21.9748 40.2966 26.5871 36.9159 31.948 34.5494C37.3089 32.1828 43.2976 30.9996 49.9142 30.9996C58.7041 30.9996 66.1176 32.5934 72.1547 35.7809C78.24 38.9685 82.9489 43.3634 86.2813 48.9658C89.6621 54.5682 91.6905 60.9433 92.3667 68.0911H70.6333C70.3918 63.8411 69.5467 60.243 68.0978 57.2969C66.6489 54.3025 64.4514 52.0568 61.5053 50.5596C58.6075 49.0141 54.7438 48.2413 49.9142 48.2413C46.292 48.2413 43.1286 48.9175 40.424 50.2698C37.7194 51.6221 35.4495 53.6747 33.6142 56.4276C31.779 59.1805 30.4025 62.6578 29.4849 66.8596C28.6156 71.013 28.1809 75.891 28.1809 81.4933V88.9551C28.1809 94.4126 28.5914 99.2181 29.4124 103.372C30.2335 107.477 31.4892 110.954 33.1795 113.804C34.9182 116.605 37.1398 118.73 39.8444 120.179C42.5973 121.579 45.9056 122.28 49.7693 122.28C54.3092 122.28 58.0521 121.555 60.9982 120.106C63.9443 118.657 66.1901 116.508 67.7355 113.659C69.3293 110.809 70.2711 107.259 70.5609 103.009ZM143.585 59.6151V74.3938H97.9449V59.6151H143.585ZM109.246 40.2725H130.11V114.383C130.11 116.653 130.4 118.392 130.98 119.599C131.607 120.807 132.525 121.652 133.732 122.135C134.94 122.569 136.461 122.787 138.296 122.787C139.6 122.787 140.76 122.738 141.774 122.642C142.836 122.497 143.73 122.352 144.454 122.207L144.527 137.565C142.74 138.145 140.808 138.604 138.731 138.942C136.654 139.28 134.36 139.449 131.849 139.449C127.261 139.449 123.252 138.7 119.823 137.203C116.442 135.658 113.834 133.195 111.999 129.814C110.164 126.433 109.246 121.99 109.246 116.484V40.2725ZM176.33 76.712V138H155.466V59.6151H175.098L176.33 76.712ZM199.947 59.108L199.584 78.4507C198.57 78.3058 197.339 78.185 195.89 78.0885C194.489 77.9436 193.209 77.8711 192.05 77.8711C189.104 77.8711 186.544 78.2575 184.371 79.0302C182.246 79.7547 180.459 80.8413 179.01 82.2902C177.61 83.7391 176.547 85.5019 175.823 87.5787C175.146 89.6554 174.76 92.0219 174.664 94.6782L170.462 93.3742C170.462 88.3031 170.969 83.6425 171.983 79.3925C172.997 75.0941 174.47 71.3511 176.402 68.1636C178.382 64.976 180.797 62.5129 183.647 60.7742C186.496 59.0356 189.756 58.1662 193.427 58.1662C194.586 58.1662 195.769 58.2628 196.976 58.456C198.184 58.6009 199.174 58.8182 199.947 59.108ZM231.822 26.7254V138H210.886V26.7254H231.822ZM293.255 50.5596L264.567 138H241.457L280.65 32.5209H295.356L293.255 50.5596ZM317.089 138L288.329 50.5596L286.011 32.5209H300.862L340.271 138H317.089ZM315.785 98.7351V115.76H260.076V98.7351H315.785Z" fill="black"/>
<rect x="470" y="61.8908" width="43.0504" height="109" rx="21.5252" transform="rotate(90 470 61.8908)" fill="url(#paint0_linear_102_220)"/>
<rect x="393.059" y="28" width="43.0504" height="109" rx="21.5252" fill="black"/>
<path d="M393 62L414.5 83.5L436 105H393V62Z" fill="#D96A64"/>
<path d="M436 105L414.5 83.5L393 62L436 62L436 105Z" fill="#17C8D5"/>
<defs>
<linearGradient id="paint0_linear_102_220" x1="491.1" y1="61.8908" x2="491.525" y2="170.891" gradientUnits="userSpaceOnUse">
<stop offset="0.470189"/>
<stop offset="0.527254" stop-color="#F3B04E"/>
</linearGradient>
</defs>
</svg>
