<svg width="125" height="46" viewBox="0 0 125 46" fill="none" xmlns="http://www.w3.org/2000/svg">
<path d="M18.7662 26.694H24.5271C24.4115 28.5822 23.8912 30.2584 22.9664 31.7227C22.0544 33.187 20.7764 34.3302 19.1323 35.1522C17.501 35.9743 15.5357 36.3853 13.2365 36.3853C11.4383 36.3853 9.82624 36.0771 8.40047 35.4605C6.9747 34.8311 5.75445 33.932 4.73972 32.7631C3.73782 31.5942 2.97356 30.1813 2.44693 28.5244C1.92029 26.8674 1.65697 25.0113 1.65697 22.9562V21.0102C1.65697 18.955 1.92671 17.0989 2.46619 15.442C3.01852 13.7721 3.80205 12.3528 4.81678 11.1839C5.84436 10.0151 7.07104 9.11593 8.49681 8.48653C9.92257 7.85714 11.5153 7.54244 13.2751 7.54244C15.6128 7.54244 17.5845 7.96632 19.1901 8.81407C20.8085 9.66183 22.0609 10.8307 22.9472 12.3207C23.8463 13.8107 24.3858 15.5062 24.5656 17.4072H18.7855C18.7212 16.2769 18.4964 15.3199 18.1111 14.5364C17.7258 13.74 17.1413 13.1428 16.3578 12.7446C15.5871 12.3335 14.5595 12.128 13.2751 12.128C12.3117 12.128 11.4704 12.3078 10.7511 12.6675C10.0318 13.0272 9.42805 13.5731 8.93995 14.3052C8.45185 15.0374 8.08577 15.9622 7.84172 17.0797C7.61052 18.1843 7.49492 19.4816 7.49492 20.9716V22.9562C7.49492 24.4076 7.6041 25.6857 7.82246 26.7903C8.04082 27.8821 8.37478 28.8069 8.82435 29.5648C9.28676 30.3098 9.87762 30.8749 10.5969 31.2603C11.3291 31.6328 12.2089 31.819 13.2365 31.819C14.4439 31.819 15.4394 31.6264 16.2229 31.241C17.0065 30.8557 17.6037 30.2841 18.0148 29.5262C18.4386 28.7684 18.6891 27.8243 18.7662 26.694ZM38.1875 15.153V19.0835H26.0492V15.153H38.1875ZM29.0548 10.0086H34.6038V29.7189C34.6038 30.3226 34.6808 30.785 34.835 31.1061C35.002 31.4273 35.246 31.6521 35.5671 31.7805C35.8882 31.8961 36.2929 31.9539 36.781 31.9539C37.1278 31.9539 37.436 31.9411 37.7058 31.9154C37.9884 31.8768 38.226 31.8383 38.4187 31.7998L38.4379 35.8844C37.9627 36.0385 37.4489 36.1606 36.8966 36.2505C36.3442 36.3404 35.7341 36.3853 35.0662 36.3853C33.8459 36.3853 32.7798 36.1862 31.8678 35.7881C30.9687 35.377 30.2751 34.7219 29.787 33.8228C29.2989 32.9237 29.0548 31.742 29.0548 30.2777V10.0086ZM46.8962 19.7V36H41.3473V15.153H46.5687L46.8962 19.7ZM53.1773 15.0181L53.081 20.1624C52.8112 20.1239 52.4837 20.0918 52.0983 20.0661C51.7258 20.0275 51.3854 20.0083 51.0772 20.0083C50.2936 20.0083 49.6129 20.111 49.0349 20.3166C48.4697 20.5092 47.9944 20.7982 47.6091 21.1836C47.2366 21.5689 46.954 22.0377 46.7613 22.5901C46.5815 23.1424 46.4788 23.7718 46.4531 24.4783L45.3356 24.1314C45.3356 22.7827 45.4704 21.5432 45.7402 20.4129C46.0099 19.2697 46.4017 18.2742 46.9155 17.4265C47.4421 16.5787 48.0843 15.9236 48.8422 15.4612C49.6 14.9988 50.467 14.7676 51.4433 14.7676C51.7515 14.7676 52.0662 14.7933 52.3873 14.8447C52.7085 14.8832 52.9718 14.941 53.1773 15.0181ZM61.6548 6.40568V36H56.0866V6.40568H61.6548ZM77.9934 12.7446L70.3636 36H64.2174L74.6409 7.94705H78.5521L77.9934 12.7446ZM84.3322 36L76.6832 12.7446L76.0666 7.94705H80.0164L90.4977 36H84.3322ZM83.9854 25.5572V30.085H69.169V25.5572H83.9854Z" fill="black"/>
<rect x="125" y="16.46" width="11.4496" height="28.9894" rx="5.72479" transform="rotate(90 125 16.46)" fill="url(#paint0_linear_102_849)"/>
<rect x="104.537" y="7.44727" width="11.4496" height="28.9894" rx="5.72479" fill="black"/>
<path d="M104.521 16.4893L110.24 22.2073L115.958 27.9254H104.521V16.4893Z" fill="#D96A64"/>
<path d="M115.958 27.9258L110.239 22.2077L104.521 16.4896L115.958 16.4896L115.958 27.9258Z" fill="#17C8D5"/>
<defs>
<linearGradient id="paint0_linear_102_849" x1="130.612" y1="16.46" x2="130.725" y2="45.4493" gradientUnits="userSpaceOnUse">
<stop offset="0.470189"/>
<stop offset="0.527254" stop-color="#F3B04E"/>
</linearGradient>
</defs>
</svg>
