<svg width="19" height="18" viewBox="0 0 19 18" fill="none" xmlns="http://www.w3.org/2000/svg">
<g clip-path="url(#clip0_1593_235)">
<path d="M12.5 15.75V14.25C12.5 13.4544 12.1839 12.6913 11.6213 12.1287C11.0587 11.5661 10.2956 11.25 9.5 11.25H4.25C3.45435 11.25 2.69129 11.5661 2.12868 12.1287C1.56607 12.6913 1.25 13.4544 1.25 14.25V15.75" stroke="#FCFCFC" stroke-width="2" stroke-linecap="round" stroke-linejoin="round"/>
<path d="M6.875 8.25C8.53185 8.25 9.875 6.90685 9.875 5.25C9.875 3.59315 8.53185 2.25 6.875 2.25C5.21815 2.25 3.875 3.59315 3.875 5.25C3.875 6.90685 5.21815 8.25 6.875 8.25Z" stroke="#FCFCFC" stroke-width="2" stroke-linecap="round" stroke-linejoin="round"/>
<path d="M15.5 6V10.5" stroke="#FCFCFC" stroke-width="2" stroke-linecap="round" stroke-linejoin="round"/>
<path d="M17.75 8.25H13.25" stroke="#FCFCFC" stroke-width="2" stroke-linecap="round" stroke-linejoin="round"/>
</g>
<defs>
<clipPath id="clip0_1593_235">
<rect width="18" height="18" fill="white" transform="translate(0.5)"/>
</clipPath>
</defs>
</svg>
